# xmcd CD database file
#
# Track frame offsets:
#	150
#	21737
#	58447
#	96047
#	115347
#	147192
#	172347
#	200740
#	225195
#
# Disc length: 3556 seconds
#
# Revision: 0
# Processed by: cddbd v1.5.2PL0 Copyright (c) Steve Scherf et al.
# Submitted via: CDex 1.51
#
DISCID=870de209
DTITLE=Roosevelt Jazz - Gettin' After It - Disk 1
DYEAR=2005
DGENRE=Jazz
TTITLE0=The Tolovana Stomp
TTITLE1=Tip Toe
TTITLE2=Concord Blues For Ray
TTITLE3=Sultry Sunset
TTITLE4=Caravan
TTITLE5=Bessie's Blues
TTITLE6=Kites
TTITLE7=The Second Time Around
TTITLE8=Sig Ep
EXTD=YEAR: 2005
EXTT0=
EXTT1=
EXTT2=
EXTT3=
EXTT4=
EXTT5=
EXTT6=
EXTT7=
EXTT8=
PLAYORDER=
